<svg width="20" height="31" viewBox="0 0 20 31" fill="none" xmlns="http://www.w3.org/2000/svg">
<path opacity="0.8" d="M0.927137 16.693L14.5921 30.358C14.7488 30.5148 14.9349 30.6393 15.1397 30.7241C15.3444 30.809 15.564 30.8527 15.7856 30.8527C16.0073 30.8527 16.2268 30.809 16.4316 30.7241C16.6364 30.6393 16.8225 30.5148 16.9791 30.358L18.5731 28.764C18.889 28.4477 19.0664 28.019 19.0664 27.572C19.0664 27.125 18.889 26.6963 18.5731 26.38L7.74614 15.5L18.5751 4.619C18.891 4.3027 19.0684 3.87399 19.0684 3.427C19.0684 2.98001 18.891 2.5513 18.5751 2.235L16.9811 0.640999C16.8245 0.484163 16.6384 0.359749 16.4336 0.27486C16.2288 0.189972 16.0093 0.146278 15.7876 0.146278C15.566 0.146278 15.3464 0.189972 15.1417 0.27486C14.9369 0.359749 14.7508 0.484163 14.5941 0.640999L0.927137 14.307C0.770452 14.4637 0.64616 14.6496 0.561361 14.8543C0.476562 15.059 0.432915 15.2784 0.432915 15.5C0.432915 15.7216 0.476562 15.941 0.561361 16.1457C0.64616 16.3504 0.770452 16.5363 0.927137 16.693Z" fill="#AEADAD"/>
</svg>
