<svg width="20" height="31" viewBox="0 0 20 31" fill="none" xmlns="http://www.w3.org/2000/svg">
<path d="M18.5729 16.693L4.90786 30.358C4.75121 30.5147 4.56522 30.639 4.36052 30.7238C4.15583 30.8086 3.93643 30.8522 3.71486 30.8522C3.4933 30.8522 3.2739 30.8086 3.0692 30.7238C2.86451 30.639 2.67852 30.5147 2.52186 30.358L0.926863 28.764C0.611033 28.4477 0.433641 28.019 0.433641 27.572C0.433641 27.125 0.611033 26.6963 0.926863 26.38L11.7539 15.5L0.924863 4.61899C0.609033 4.30269 0.431641 3.87397 0.431641 3.42699C0.431641 2.98 0.609033 2.55129 0.924863 2.23499L2.52086 0.641988C2.67752 0.485302 2.86351 0.361011 3.0682 0.276211C3.2729 0.191412 3.4923 0.147766 3.71386 0.147766C3.93543 0.147766 4.15483 0.191412 4.35952 0.276211C4.56422 0.361011 4.75021 0.485302 4.90686 0.641988L18.5719 14.307C18.8882 14.6234 19.066 15.0524 19.0662 15.4998C19.0664 15.9472 18.8889 16.3763 18.5729 16.693Z" fill="#AEADAD"/>
</svg>
