<svg width="41" height="22" viewBox="0 0 41 22" fill="none" xmlns="http://www.w3.org/2000/svg">
<path d="M21.6646 7.33333C20.1954 3.06167 16.2179 0 11.5417 0C5.61127 0 0.791687 4.93167 0.791687 11C0.791687 17.0683 5.61127 22 11.5417 22C16.2179 22 20.1954 18.9383 21.6646 14.6667H29.4584V22H36.625V14.6667H40.2084V7.33333H21.6646ZM11.5417 14.6667C9.57085 14.6667 7.95835 13.0167 7.95835 11C7.95835 8.98333 9.57085 7.33333 11.5417 7.33333C13.5125 7.33333 15.125 8.98333 15.125 11C15.125 13.0167 13.5125 14.6667 11.5417 14.6667Z" fill="black"/>
</svg>
